<svg width="168" height="72" viewBox="0 0 168 72" fill="none" xmlns="http://www.w3.org/2000/svg">
<g clip-path="url(#clip0_1_2)">
<path d="M41.6564 64.6188L45.9449 71.6455H42.009L38.2493 65.0509H35.955V71.6455H32.6745V52.8755H38.0234C41.0752 52.8755 42.3119 53.23 43.3971 53.9667C45.036 55.0829 45.9697 56.9857 45.9697 59.0408C45.9697 61.7273 44.3281 63.9597 41.6564 64.6188ZM41.403 56.5287C40.6456 56.0218 39.6871 55.8695 38.3512 55.8695H35.955V62.3893H38.7286C41.6812 62.3893 42.7141 60.7413 42.7141 59.1183C42.7141 58.0243 42.2348 57.0854 41.403 56.5287Z" fill="white"/>
<path d="M61.504 69.8452C60.2426 71.2411 58.5266 72 56.5352 72C55.1223 72 52.9271 71.5181 51.4893 69.8701C50.1011 68.272 49.7734 66.7764 49.7734 64.4665V52.8755H53.1777V64.4416C53.1777 65.6076 53.2273 66.926 54.0095 67.84C54.6403 68.6764 55.6236 68.9811 56.5077 68.9811C57.491 68.9811 58.4743 68.6515 59.105 67.7624C59.7606 66.8484 59.8101 65.6824 59.8101 64.4637V52.8727H63.2145V64.4388C63.22 67.0035 62.6664 68.5518 61.504 69.8452Z" fill="white"/>
<path d="M83.3211 72H82.3625L71.2378 59.3925H71.1359V71.6427H67.9574V52.5182H68.9159L80.0654 65.0731H80.1674V52.8727H83.3211V72Z" fill="white"/>
<path d="M105.441 72H104.356L99.7148 59.7997H99.6129L94.9223 72H93.8123L87.7831 52.8755H91.3141L94.8699 64.5939H94.9718L99.1336 52.7232H100.219L104.331 64.6189H104.433L108.041 52.8755H111.547L105.441 72Z" fill="white"/>
<path d="M125.267 71.6455L123.526 67.4356H116.111L114.346 71.6455H110.713L119.491 52.4711H120.248L128.924 71.6455H125.267ZM119.843 58.6336L117.045 64.7961H122.595L119.843 58.6336Z" fill="white"/>
<path d="M136.992 65.0011V71.6455H133.612V65.0011L127.735 52.8755H131.392L135.276 61.7772L139.212 52.8755H142.87L136.992 65.0011Z" fill="white"/>
<path d="M167.245 27.3725L167.234 27.6384C167.044 31.8538 165.573 35.2356 162.863 37.6895C158.071 42.0296 151.011 41.664 149.188 41.6418C149.169 41.6418 148.871 41.6418 148.855 41.6418V22.0022C148.943 22.0022 149.306 22.0022 149.397 21.9994C152.818 21.9772 156.801 21.667 157.465 30.2557L157.484 30.5106H158.142V12.6186H157.492L157.465 12.8651C156.589 21.0134 152.496 20.9802 149.16 20.9885C149.149 20.9885 148.863 20.9885 148.855 20.9885V2.26282C149.295 2.26005 150.017 2.25451 150.46 2.2462C156.751 2.14926 162.984 1.49839 165.637 14.9562L165.681 15.1805H166.35V1.21866H130.189V2.17973H133.389V31.6433C133.312 35.8754 131.665 38.4733 130.219 39.8498C128.473 41.5144 126.027 42.3868 123.815 42.3093C115.657 42.0129 115.428 33.7621 115.423 33.4048V2.17973H119.138V1.21866H104.686V2.17973H108.52L108.509 29.9538C108.509 37.5482 112.346 43.4061 123.551 43.4061C131.065 43.4061 134.513 37.13 134.436 31.9258V2.17973H137.843V2.18527H141.884V41.628H138.237V42.6195H168V27.3725H167.245Z" fill="white"/>
<path d="M91.9751 24.902V25.8658H95.3024V34.4988C95.2969 40.9466 91.0442 42.3813 87.7087 42.4478C84.1088 42.5059 81.696 40.7333 80.3299 37.0525C78.983 33.463 78.2724 29.9982 78.2724 21.9301C78.2724 19.058 78.7131 9.63841 80.8229 5.51716C81.6244 3.96338 83.1172 1.07463 87.5682 1.07463C87.582 1.07463 87.5958 1.07463 87.6095 1.07463C93.0356 1.09678 96.1534 4.8746 98.6819 15.0032L98.7343 15.2137H99.3485V0H98.7563L98.6847 0.171719C98.1063 1.56486 96.7263 1.86952 95.5365 1.84182C94.9691 1.81966 94.4513 1.73657 94.0712 1.65902C93.7352 1.58424 93.5203 1.515 93.5093 1.51223C92.986 1.34605 92.5232 1.18818 92.0991 1.04693C91.9063 0.980459 91.719 0.925066 91.5317 0.872442C90.1628 0.415449 89.1409 0.124635 87.5572 0.124635C80.4235 0.124635 70.6071 7.41437 70.6071 22.4536C70.6071 34.737 77.9446 43.4116 87.9593 43.4116C89.824 43.4116 91.3637 42.7967 92.8125 42.1209C93.0824 42.0102 93.3495 41.8966 93.6057 41.7747C95.0214 41.0989 96.3628 40.4591 97.8721 40.3788C97.9327 40.3761 97.9933 40.3761 98.0539 40.3733C98.0952 40.3733 98.1366 40.3705 98.1806 40.3705C99.0537 40.3705 100.806 40.9383 101.144 42.6278L101.188 42.8494L101.775 42.8521V25.8714H104.926V24.9075H91.9751V24.902Z" fill="white"/>
<path d="M49.3713 0.213269C40.91 0.213269 31.6389 8.71612 31.6389 21.6975C31.6389 34.6789 41.2157 43.2953 49.3713 43.2953C57.5296 43.2953 67.1036 34.6789 67.1036 21.6975C67.1064 8.71612 57.8325 0.213269 49.3713 0.213269ZM59.2593 20.1022C59.262 20.1963 59.2648 20.2905 59.2648 20.3819C59.2675 20.4512 59.2675 20.5176 59.2675 20.5869C59.2675 20.6395 59.2703 20.6949 59.2703 20.7475C59.2703 20.8334 59.273 20.9165 59.273 20.9968C59.273 21.0272 59.273 21.0605 59.273 21.0909C59.273 21.1796 59.2758 21.2627 59.2758 21.3458C59.2758 21.3679 59.2758 21.3901 59.2758 21.4122C59.2758 21.5119 59.2758 21.6061 59.2758 21.6975C59.2758 21.7695 59.2758 21.8471 59.2758 21.9274C59.2648 24.3287 59.0637 33.6126 56.6454 38.2407C55.282 40.9217 52.5856 42.3398 49.3713 42.3398C46.157 42.3398 43.4605 40.9217 42.0943 38.2379C39.676 33.6126 39.475 24.3259 39.464 21.9274C39.464 21.8471 39.464 21.7695 39.464 21.6975C39.464 21.6089 39.464 21.5147 39.464 21.4122C39.464 21.3901 39.464 21.3679 39.464 21.3458C39.464 21.2627 39.4639 21.1796 39.4667 21.0909C39.4667 21.0605 39.4667 21.0272 39.4667 20.9968C39.4667 20.9165 39.4695 20.8334 39.4695 20.7475C39.4695 20.6949 39.4722 20.6395 39.4722 20.5869C39.4722 20.5204 39.475 20.4512 39.475 20.3819C39.4777 20.2905 39.4777 20.1963 39.4805 20.1022C39.4805 20.0689 39.4832 20.0357 39.4832 20.0025C39.5769 16.3022 40.0369 9.35037 42.0943 5.26512C43.7635 1.8806 47.0989 1.17157 49.374 1.17157C51.6463 1.17157 54.9818 1.88337 56.6482 5.27066C58.7057 9.35314 59.1629 16.305 59.2565 20.0052C59.2565 20.0357 59.2593 20.0689 59.2593 20.1022Z" fill="white"/>
<path d="M27.0805 1.2242V2.17419H30.4491L21.4644 32.405L10.6152 2.17419H13.6945V1.62026H13.6973V1.2242H0V2.17419H3.96623L19.1646 42.8438H19.3822L31.4874 2.17419H35.1975V1.2242H27.0805Z" fill="white"/>
</g>
<defs>
<clipPath id="clip0_1_2">
<rect width="168" height="72" fill="white"/>
</clipPath>
</defs>
</svg>
